<?xml version="1.0" encoding="UTF-8" standalone="no"?>
<!-- Created with Inkscape (http://www.inkscape.org/) -->

<svg
   width="149.01955mm"
   height="71.044357mm"
   viewBox="0 0 149.01955 71.044357"
   version="1.1"
   id="svg5"
   inkscape:version="1.1.1 (3bf5ae0d25, 2021-09-20)"
   sodipodi:docname="logo.svg"
   xmlns:inkscape="http://www.inkscape.org/namespaces/inkscape"
   xmlns:sodipodi="http://sodipodi.sourceforge.net/DTD/sodipodi-0.dtd"
   xmlns:xlink="http://www.w3.org/1999/xlink"
   xmlns="http://www.w3.org/2000/svg"
   xmlns:svg="http://www.w3.org/2000/svg">
  <sodipodi:namedview
     id="namedview7"
     pagecolor="#ffffff"
     bordercolor="#666666"
     borderopacity="1.0"
     inkscape:pageshadow="2"
     inkscape:pageopacity="0.0"
     inkscape:pagecheckerboard="0"
     inkscape:document-units="mm"
     showgrid="false"
     inkscape:zoom="0.74118965"
     inkscape:cx="286.70125"
     inkscape:cy="213.8454"
     inkscape:window-width="1920"
     inkscape:window-height="1017"
     inkscape:window-x="-8"
     inkscape:window-y="-8"
     inkscape:window-maximized="1"
     inkscape:current-layer="layer1"
     fit-margin-top="0"
     fit-margin-left="0"
     fit-margin-right="0"
     fit-margin-bottom="0" />
  <defs
     id="defs2">
    <rect
       x="373.02023"
       y="378.74435"
       width="310.05518"
       height="56.286942"
       id="rect5365" />
    <linearGradient
       inkscape:collect="always"
       id="linearGradient2127">
      <stop
         style="stop-color:#ff9955;stop-opacity:1"
         offset="0"
         id="stop2123" />
      <stop
         style="stop-color:#ffcc00;stop-opacity:1"
         offset="1"
         id="stop2125" />
    </linearGradient>
    <linearGradient
       inkscape:collect="always"
       xlink:href="#linearGradient2127"
       id="linearGradient2129"
       x1="61.34108"
       y1="97.664558"
       x2="91.088676"
       y2="101.57671"
       gradientUnits="userSpaceOnUse"
       gradientTransform="matrix(1.2515408,0,0,1.2515408,-23.725758,-36.802706)" />
  </defs>
  <g
     inkscape:label="Calque 1"
     inkscape:groupmode="layer"
     id="layer1"
     transform="translate(-19.231054,-54.802515)">
    <path
       style="fill:url(#linearGradient2129);fill-opacity:1;stroke:none;stroke-width:0.114219"
       d="m 53.154178,54.802515 0.360361,3.312359 0.213936,1.366132 1.444415,1.48935 1.671484,3.08392 1.058583,3.997675 0.521298,1.905521 2.154177,0.721522 C 59.978438,69.286661 59.272906,68.048638 58.866396,66.567101 57.778918,62.6036 57.408389,56.815014 53.154178,54.802515 m 0.22844,6.510499 c -0.08166,3.937001 -4.664374,5.933462 -5.710966,9.594419 l 0.114228,0.114215 c 0.77235,-0.206508 1.830019,-0.373497 2.512822,-0.783201 3.340227,-2.00432 3.458102,-5.531937 3.312362,-8.925437 h -0.22844 m 18.960412,11.536147 0.114265,0.114216 c -0.426725,1.106213 -1.724598,3.165244 -1.585714,4.340332 0.05895,0.498681 0.611765,0.981258 0.900396,1.370631 l 0.931234,-1.827509 1.741494,-4.454551 0.639637,-2.284385 c -1.994155,0.818152 -3.943192,1.744813 -5.939412,2.558168 -0.444535,0.181038 -1.812882,0.5157 -1.97005,1.019408 -0.152939,0.489543 0.818032,0.868638 1.170516,0.827061 1.323804,-0.156024 2.774165,-1.153956 3.997684,-1.663375 m -39.063006,-2.398605 1.474341,3.655017 2.294894,5.368305 c 2.181475,-1.683477 -0.663039,-4.457178 -1.027973,-6.510497 1.345049,0.23906 2.724132,1.007755 3.997676,1.508036 0.90005,0.353509 1.824765,0.424667 2.170164,-0.708502 L 33.28008,70.450548 m 19.417278,1.200902 c -7.224143,1.443731 -13.401006,5.759164 -15.691902,13.076506 -3.319553,10.602976 3.445309,21.633704 14.092831,24.053884 2.337497,0.53136 4.59961,0.67642 6.967376,0.22217 8.227675,-1.57805 15.0613,-8.26297 15.751638,-16.851811 0.7518,-9.354093 -5.618905,-18.389406 -14.952104,-20.145413 -1.941386,-0.365273 -4.185336,-0.751564 -6.167839,-0.355336 m 0.22844,3.973231 c 1.824308,-0.259962 3.952785,-0.09708 5.710963,0.418613 2.747998,0.805817 5.239476,2.192325 7.176286,4.344331 5.646889,6.274178 4.805779,16.405877 -1.840529,21.626285 -2.330532,1.83047 -5.058548,2.74902 -7.9628,3.12628 -9.586312,1.24511 -17.314959,-8.250388 -15.839361,-17.328314 1.040652,-6.402217 6.432146,-11.286233 12.755441,-12.187195 m 1.599067,1.271033 c -1.038252,0.12404 -2.060056,0.09195 -3.08392,0.362874 -3.71464,0.982857 -6.888906,3.605443 -8.620697,7.012492 -4.70835,9.263072 3.097851,20.78025 13.532124,19.49882 5.81696,-0.71444 11.066026,-5.307078 11.845799,-11.275041 1.003873,-7.683751 -5.176749,-16.613641 -13.673306,-15.599145 m -0.571149,23.366076 c -0.0035,-0.425698 -0.05917,-0.834378 -0.108622,-1.256408 -0.03199,-0.27321 -0.07253,-0.53615 -0.15557,-0.79942 -0.06065,-0.19223 -0.127237,-0.38733 -0.256993,-0.54551 -1.305526,-1.59245 -2.053546,1.21369 -2.93966,1.4925 -0.555907,0.17475 -1.751779,-0.7157 -2.066454,-1.13202 -0.675836,-0.89424 1.352012,-1.95178 0.661102,-3.01106 -0.955445,-1.46463 -2.572103,0.60388 -3.361475,-0.26864 -0.212562,-0.23507 -0.333519,-0.58664 -0.45128,-0.87572 -0.155682,-0.38172 -0.552708,-1.159331 -0.33055,-1.563215 0.423753,-0.770399 2.317396,-0.465561 2.36388,-1.68336 0.06065,-1.587304 -1.885074,-1.046363 -2.488721,-1.947548 -0.44854,-0.669443 0.309762,-1.995299 0.453677,-2.687011 0.868409,0.0379 1.884046,0.741054 2.736807,0.519923 2.049666,-0.531575 -0.279151,-2.61402 -0.386859,-3.485055 -0.07847,-0.634376 1.065095,-1.334883 1.533511,-1.590732 1.281765,-0.699937 1.628422,1.937386 2.969697,1.635391 1.828311,-0.411648 0.253798,-2.626359 1.292736,-3.162618 0.245912,-0.127012 0.60696,-0.114566 0.877434,-0.150541 0.458014,-0.06088 1.369944,-0.191546 1.692844,0.24443 0.5848,0.789595 -0.301656,2.669074 1.162748,2.888263 1.350072,0.202054 1.716831,-2.143555 2.742859,-1.794043 0.548711,0.186977 1.917173,1.009243 1.738881,1.701297 -0.216558,0.840882 -1.483141,1.725511 -0.686116,2.610253 0.959674,1.065207 2.603733,-0.571897 3.22098,0.372013 0.258594,0.39554 0.987891,1.993238 0.565271,2.383296 -0.64363,0.594282 -2.308941,0.409241 -2.18421,1.711695 0.12883,1.345394 2.400877,1.022947 2.338513,2.172224 -0.02854,0.526198 -0.323686,1.902898 -0.898331,2.079588 -0.963662,0.29628 -1.979415,-0.8386 -2.744002,0.32187 -0.808896,1.22763 1.281541,1.93659 0.742317,2.85446 -0.143121,0.24373 -0.381268,0.43826 -0.590857,0.62215 -0.320158,0.28097 -0.897084,0.86863 -1.370406,0.76413 -0.908272,-0.20058 -1.207523,-2.00079 -2.417675,-1.49377 -1.402731,0.58778 -0.237353,1.91295 -0.917416,2.76 -0.45482,0.566518 -2.094208,0.313188 -2.738058,0.313188 M 74.398967,83.699989 c 0.136368,0.802392 0.382521,2.036988 0.809697,2.730985 1.787763,2.904821 5.610444,2.518195 8.442067,2.29467 -0.94699,-0.567329 -2.198719,-0.539118 -3.198149,-1.174862 -1.886097,-1.199991 -3.64679,-3.727318 -6.053615,-3.850793 m -39.862531,1.256414 c -3.249082,2.477303 -7.897932,2.248864 -11.536147,3.946847 -1.40235,0.65448 -3.387172,1.865884 -3.769235,3.477406 1.283767,-0.23917 3.038929,-0.08598 4.226021,-0.54163 0.950761,-0.365049 1.62943,-1.619631 2.512915,-2.189357 1.825921,-1.177487 3.95884,-1.669312 6.053623,-2.132011 1.052758,-0.232438 3.541254,-0.892512 2.512823,-2.561255 m 18.508665,0.472068 c -0.896281,0.385149 -0.349055,1.734765 0.563785,1.400215 0.957499,-0.350994 0.249684,-1.749953 -0.563785,-1.400215 m 5.021076,1.376459 c -1.022148,0.246942 -0.516268,1.758401 0.454138,1.473772 0.955898,-0.280296 0.477779,-1.699014 -0.454138,-1.473772 m 16.675449,9.687632 c 1.156474,-0.66533 2.150635,-1.39725 3.426568,-1.86234 3.978148,-1.45014 10.410742,-2.070358 12.107243,-6.704116 l -3.083909,0.520957 -1.708841,0.281321 -1.396094,1.459259 -3.062908,1.848989 -3.655012,1.20969 -1.905521,0.69366 -0.721526,2.55258 m -20.445252,-8.15367 c -2.519908,0.666584 -1.491594,4.394586 1.027856,3.732345 2.254576,-0.592692 1.279596,-4.342731 -1.027856,-3.732345 m -3.997107,1.308724 c -1.023061,0.210497 -0.579093,1.753722 0.339916,1.493651 0.894567,-0.253111 0.588462,-1.684736 -0.339916,-1.493651 M 25.96999,91.809553 v 0.114265 c 1.209582,0.563106 2.368132,0.898456 3.426579,1.766404 1.774167,1.4548 3.296938,3.52892 5.710965,3.94456 -0.110561,-0.81667 -0.342316,-1.89067 -0.719924,-2.62704 -1.624771,-3.16844 -5.416919,-3.198152 -8.41762,-3.198152 m 32.552493,1.827512 c 0.192574,-0.11264 0.385719,-0.21267 0.537633,-0.38194 1.429337,-1.594055 -2.448978,-1.523017 -1.062014,-0.0154 0.145288,0.15796 0.350653,0.27493 0.524381,0.39737 m -5.351401,0.11739 c -0.829803,0.48977 0.0411,1.75738 0.851846,1.23277 0.827522,-0.53559 -0.02693,-1.7197 -0.851846,-1.23277 m -15.664942,8.563238 -1.72277,3.42658 -2.503347,5.3683 2.398606,-0.64727 4.91143,-1.6949 2.398605,-1.08441 -1.484853,-0.8684 -1.713289,0.47847 -3.655015,1.30369 -0.114215,-0.11426 c 0.635516,-1.72266 3.161249,-4.63547 1.484854,-6.16785 m 34.494218,0 c -0.344725,0.39839 -0.942886,0.94917 -1.037803,1.48486 -0.275151,1.55361 1.599982,3.20499 1.380462,4.7972 -1.465204,-0.85526 -4.068496,-2.72618 -5.368309,-1.02796 2.431957,1.54824 5.446656,2.77471 8.109571,3.88344 l -0.587323,-2.39859 -1.563775,-4.45456 -0.932823,-2.28439 m -15.990696,16.79023 h 0.114216 c 0.458018,-1.07822 0.656416,-2.12847 1.403644,-3.08392 1.41015,-1.80307 3.68483,-3.34 4.193104,-5.71096 -0.902675,0.09 -2.432756,0.39086 -3.198142,0.88269 -2.389808,1.53556 -3.289742,5.2896 -2.512821,7.91219 m -6.39628,-8.33801 c 0.15054,1.20719 0.879716,2.46052 1.207869,3.65502 0.834713,3.03812 1.120378,6.34214 2.92744,9.02286 0.630033,0.93454 1.576338,2.1278 2.717844,2.39906 -0.0514,-1.1969 -0.03527,-3.51578 -0.574294,-4.56705 -0.335461,-0.65436 -1.15247,-1.13328 -1.617798,-1.715 -0.841114,-1.05128 -1.359782,-2.26738 -1.766288,-3.5408 -0.34574,-1.08337 -0.563672,-2.20729 -0.825577,-3.31236 -0.09926,-0.41849 -0.138777,-1.09514 -0.4402,-1.42054 -0.354081,-0.38207 -1.144251,-0.42707 -1.628996,-0.52119 z"
       id="path1118" />
    <path
       style="fill:#0a0a0a;stroke:none;stroke-width:0.124672"
       d="m 99.248259,99.555701 c 0.642346,0.15247 2.960061,0.491209 3.445801,-0.0228 0.55354,-0.58584 0.16968,-2.81471 0.16968,-3.592664 V 85.71716 c 1.00016,0.871043 1.62951,2.157429 2.37506,3.24146 1.56249,2.27189 3.09356,4.56834 4.63247,6.856935 0.70589,1.049856 1.53209,3.043486 2.63493,3.695136 0.95062,0.561769 2.98564,0.16968 4.0714,0.16968 v -15.45927 -3.864818 c -1.2e-4,-0.449241 0.1122,-1.154894 -0.23912,-1.506235 -0.50093,-0.500855 -3.11542,-0.503366 -3.32262,0.284055 -0.34011,1.292882 -0.0537,3.003824 -0.0537,4.338969 v 9.225694 c -1.23725,-1.104215 -2.09623,-2.859616 -3.00771,-4.238832 -1.60338,-2.425946 -3.25079,-4.826958 -4.88677,-7.23095 -1.24223,-1.825428 -1.67494,-2.618293 -3.94932,-2.618102 -0.43304,3.8e-5 -1.03938,-0.09737 -1.435615,0.114494 -0.461883,0.246965 -0.315095,0.953168 -0.311118,1.381564 0.01156,1.246516 0.0013,2.493581 0.0013,3.740147 v 10.098395 c 0,1.838905 0.188291,3.794379 -0.124672,5.610219 m 27.053725,-15.77742 c -1.93752,0.220893 -3.77044,0.933976 -5.07376,2.438251 -2.49355,2.878067 -2.53382,8.30381 -0.10734,11.219629 1.89102,2.27251 4.84399,2.878669 7.67453,2.576089 6.4075,-0.684949 8.95155,-9.026221 4.93176,-13.794783 -1.76572,-2.094632 -4.80447,-2.737974 -7.42519,-2.439186 m 28.30044,3.808952 c 2.09586,-0.375411 7.10017,-3.026564 7.68052,0.872701 0.37539,2.521731 -2.6267,1.621902 -4.31438,1.986018 -2.93265,0.632583 -5.0315,2.749257 -4.70635,5.868289 0.32539,3.1219 3.7455,4.384449 6.45175,3.47809 0.7671,-0.25695 1.84003,-1.41852 2.58544,-1.39682 0.48472,0.014 0.89875,0.88055 1.28698,1.14211 0.95773,0.645549 3.29046,0.876069 4.28284,0.17006 0.46079,-0.32789 0.49445,-1.73531 0.15273,-2.15782 -0.43274,-0.53497 -1.20657,-0.30582 -1.47674,-1.118678 -1.07766,-3.242333 1.4058,-8.143196 -1.1365,-10.949877 -1.91109,-2.109841 -5.51074,-1.98775 -8.06351,-1.469977 -0.72783,0.147624 -1.97542,0.242835 -2.50366,0.823269 -0.51751,0.568664 -0.23912,2.032196 -0.23912,2.752635 m -18.32671,-3.366132 c 1.48359,3.769395 2.92043,7.557215 4.35565,11.345111 0.35643,0.940772 0.87544,3.529699 1.81085,3.999709 0.6933,0.34834 3.62657,0.39496 4.1553,-0.20795 0.94776,-1.0809 1.35655,-3.321623 1.87432,-4.66446 1.33847,-3.47123 2.8935,-6.923721 4.01118,-10.47241 -0.71961,-0.170787 -2.26641,-0.391119 -2.9152,0.04501 -0.7211,0.48471 -1.04262,2.163176 -1.34533,2.94711 -1.00223,2.596485 -2.17626,5.186212 -2.97042,7.854308 -0.66138,-0.75551 -0.91347,-1.819706 -1.27352,-2.742774 -0.68046,-1.744903 -1.36914,-3.48659 -2.03738,-5.236205 -0.28987,-0.758788 -0.58272,-2.341244 -1.27215,-2.822439 -0.82084,-0.572991 -3.45365,-0.268007 -4.3933,-0.04501 m -9.72439,2.325885 c 4.49915,-1.163746 5.08349,5.388417 4.05383,8.271197 -0.40718,1.139872 -1.07505,2.155448 -2.30842,2.477098 -4.3761,1.14124 -4.85958,-5.311132 -4.00819,-8.087318 0.34746,-1.133401 1.0344,-2.343239 2.26278,-2.660977 m 34.16001,6.069248 c 1.75812,-0.185885 2.14959,1.575973 1.48035,3.053705 -0.40381,0.891401 -1.6903,1.382982 -2.60239,1.464512 -1.6696,0.14924 -2.92904,-1.579584 -1.98565,-3.062053 0.67747,-1.064571 1.94064,-1.332739 3.10769,-1.456164"
       id="path3176"
       sodipodi:nodetypes="ccscccccccccsccssssssccccssccccccccccssssccsscccsccccccccsccccssc" />
    <text
       xml:space="preserve"
       transform="matrix(0.19943532,0,0,0.19943532,23.321568,26.795607)"
       id="text5363"
       style="font-style:normal;font-weight:normal;font-size:40px;line-height:1.25;font-family:sans-serif;white-space:pre;shape-inside:url(#rect5365);fill:#999999;fill-opacity:1;stroke:none"><tspan
         x="373.01953"
         y="415.23735"
         id="tspan843">at UT Dallas</tspan></text>
  </g>
</svg>
